<?xml version="1.0" encoding="UTF-8"?>
<svg version="1.1" xmlns="http://www.w3.org/2000/svg" width="486" height="486">
<path d="M0 0 C3.95593444 2.86787233 7.67299074 5.89881461 10.125 10.1875 C10.69070071 14.35954275 10.70556911 17.74674119 8.125 21.1875 C5.01960452 23.83621968 3.37158507 24.18352282 -0.75 24.25 C-4.9451367 23.55081055 -7.07838698 21.52734463 -10.109375 18.6875 C-15.24483361 14.32463251 -21.52364965 13.55900516 -28.08203125 13.78515625 C-39.99976794 15.50197706 -48.76426005 25.45910034 -56.15625 34.2109375 C-59.20778316 37.72020063 -62.55942244 40.93043263 -65.875 44.1875 C-67.54307969 45.85275244 -69.20954062 47.51962692 -70.875 49.1875 C-71.99991572 50.31258427 -73.12492133 51.43757868 -74.25 52.5625 C-74.84296875 53.15546875 -75.4359375 53.7484375 -76.046875 54.359375 C-81.5 59.8125 -81.5 59.8125 -83.24438477 61.5559082 C-84.69520615 63.00759847 -86.14275811 64.46255456 -87.58984375 65.91796875 C-88.95673698 67.2755157 -90.3397872 68.61750064 -91.75390625 69.92578125 C-97.87917723 75.6531228 -101.30110023 81.48840789 -101.9140625 89.953125 C-101.78964672 97.06970773 -99.25135336 102.69232897 -94.375 107.8125 C-93.55 108.59625 -92.725 109.38 -91.875 110.1875 C-91.38 110.744375 -90.885 111.30125 -90.375 111.875 C-85.88154143 115.80677625 -79.6180809 116.21265218 -73.875 116.1875 C-65.10214996 115.16740116 -59.89751126 110.28086434 -53.875 104.1875 C-53.09640625 103.41277344 -52.3178125 102.63804687 -51.515625 101.83984375 C-49.51247283 99.82780185 -47.52085201 97.80648098 -45.53515625 95.77734375 C-44.33601735 94.55981718 -43.13679723 93.3423706 -41.9375 92.125 C-41.34259766 91.51333984 -40.74769531 90.90167969 -40.13476562 90.27148438 C-31.88002716 81.92653019 -31.88002716 81.92653019 -26.71484375 80.65625 C-21.80064307 80.73697609 -19.2878187 81.67126255 -15.875 85.1875 C-14.07871017 88.78007966 -14.65027572 92.44596734 -15.875 96.1875 C-17.7464793 98.33395542 -19.69101514 99.971221 -21.96484375 101.6796875 C-24.12169819 103.22235508 -24.12169819 103.22235508 -25.875 106.1875 C-26.535 106.1875 -27.195 106.1875 -27.875 106.1875 C-28.865 108.1675 -28.865 108.1675 -29.875 110.1875 C-30.535 110.1875 -31.195 110.1875 -31.875 110.1875 C-32.20177734 110.99767578 -32.20177734 110.99767578 -32.53515625 111.82421875 C-38.78295206 122.84438338 -51.58433701 131.82925847 -63.41040039 135.59204102 C-67.68257836 136.62421953 -71.87259157 136.67574214 -76.25 136.625 C-77.17393555 136.61670166 -78.09787109 136.60840332 -79.04980469 136.59985352 C-90.5879191 136.31414589 -98.30660331 132.86335537 -106.875 125.1875 C-107.8340625 124.35025391 -107.8340625 124.35025391 -108.8125 123.49609375 C-116.32229117 116.5204041 -121.7809274 106.5381196 -122.30859375 96.19921875 C-122.33220642 94.42463578 -122.33287584 92.64962309 -122.3125 90.875 C-122.30420166 89.94582764 -122.29590332 89.01665527 -122.28735352 88.05932617 C-121.97586676 75.41030338 -117.30103529 66.20099001 -108.78125 56.90234375 C-106.875 55.1875 -106.875 55.1875 -104.875 55.1875 C-104.62234375 54.60871094 -104.3696875 54.02992188 -104.109375 53.43359375 C-101.28944268 48.30238779 -96.29888053 44.34985145 -91.8125 40.6875 C-88.68831998 38.02862339 -86.18210666 35.14716923 -83.53125 32.03125 C-81.518133 29.79023296 -79.23023389 28.05960899 -76.875 26.1875 C-75.26896388 24.35374234 -73.7253504 22.48503771 -72.20703125 20.578125 C-71.76746094 20.11921875 -71.32789063 19.6603125 -70.875 19.1875 C-70.215 19.1875 -69.555 19.1875 -68.875 19.1875 C-68.60945313 18.59582031 -68.34390625 18.00414062 -68.0703125 17.39453125 C-66.05151429 13.66701167 -62.93865723 11.06951747 -59.875 8.1875 C-59.26398438 7.59453125 -58.65296875 7.0015625 -58.0234375 6.390625 C-41.7608349 -8.73426466 -19.04755792 -11.8018922 0 0 Z " fill="#D9EDF8" transform="translate(255.875,215.8125)"/>
<path d="M0 0 C5.70840382 0.49507631 11.0800294 1.64851589 16.609375 3.109375 C17.81135277 3.42029839 17.81135277 3.42029839 19.03761292 3.73750305 C21.60961915 4.40377084 24.17979968 5.07680304 26.75 5.75 C29.39016516 6.43603245 32.03074388 7.12045696 34.67134094 7.80482483 C36.40024588 8.25306844 38.12899721 8.70190499 39.85758972 9.15135193 C47.12179824 11.03871613 54.3997568 12.86707254 61.69238281 14.64160156 C66.79136281 15.8956814 66.79136281 15.8956814 69 17 C69.64681064 25.57086057 67.71083956 32.98787229 65.375 41.1875 C65.00823471 42.51011942 64.64285428 43.83312358 64.27880859 45.15649414 C63.54402139 47.82504402 62.80399737 50.49205494 62.06054688 53.15820312 C60.52086324 58.73565746 59.06874114 64.3345851 57.625 69.9375 C56.15025245 75.64628072 54.64833758 81.33865364 53 87 C45.53577832 87.39162877 39.1663233 86.33912252 32 84.3125 C30.99743164 84.03994385 29.99486328 83.7673877 28.96191406 83.48657227 C25.97094237 82.67035559 22.98511779 81.83733877 20 81 C18.39078472 80.55411065 16.78142215 80.10875236 15.171875 79.6640625 C12.98207675 79.0578364 10.79296327 78.44958724 8.60571289 77.83422852 C2.07079453 75.9979766 -4.49497955 74.285074 -11.07324219 72.61108398 C-16.89154677 71.10845323 -16.89154677 71.10845323 -18 70 C-18.19601934 63.95140311 -16.57383202 58.22170637 -14.8046875 52.5 C-12.77347442 45.76389681 -10.90600452 38.99800984 -9.140625 32.1875 C-8.90308502 31.27202393 -8.66554504 30.35654785 -8.42080688 29.41333008 C-7.44390356 25.63842194 -6.47178575 21.86229146 -5.50048828 18.0859375 C-4.77920482 15.28571603 -4.05385044 12.48657293 -3.328125 9.6875 C-3.10835999 8.82729248 -2.88859497 7.96708496 -2.66217041 7.08081055 C-1.11302341 1.11302341 -1.11302341 1.11302341 0 0 Z " fill="#D6EAF5" transform="translate(320,303)"/>
<path d="M0 0 C0.495 1.98 0.495 1.98 1 4 C7.93 4 14.86 4 22 4 C22.33 2.68 22.66 1.36 23 0 C30.63426835 0.18216259 37.77314333 1.33683828 44 6 C53.38342076 18.02398138 57.12854705 33.08991229 57.3125 48.125 C57.35600586 49.32189453 57.35600586 49.32189453 57.40039062 50.54296875 C57.46276829 56.29131034 57.46276829 56.29131034 55.5078125 59.28515625 C52.0147697 61.6737011 48.39183966 63.52373075 44.5625 65.3125 C43.81162109 65.68439453 43.06074219 66.05628906 42.28710938 66.43945312 C38.9986058 67.99259861 36.74997197 69.03104023 33.07421875 68.87890625 C30.10425125 67.62044544 29.36019123 65.85640157 28 63 C27.67 62.01 27.34 61.02 27 60 C26.32195312 60.144375 25.64390625 60.28875 24.9453125 60.4375 C14.40653925 62.53941599 5.49713411 62.23513122 -5 60 C-5.13277344 60.77730469 -5.26554687 61.55460937 -5.40234375 62.35546875 C-6.0571511 65.25288429 -7.09354001 66.76198176 -9 69 C-15.1311411 68.53650525 -19.52698225 66.50852012 -24.875 63.5625 C-25.64585938 63.15451172 -26.41671875 62.74652344 -27.2109375 62.32617188 C-32.86146116 59.27707768 -32.86146116 59.27707768 -34 57 C-34.81188723 41.29310479 -32.84000021 28.31260159 -26 14 C-25.42378906 12.72382812 -25.42378906 12.72382812 -24.8359375 11.421875 C-21.26416003 4.80422594 -16.41414059 3.04934184 -9.4375 0.77734375 C-6.15530688 0.03512053 -3.34961514 -0.15828974 0 0 Z M-8.3125 31.75 C-10.49528051 34.59027862 -10.49528051 34.59027862 -11 38 C-10.16033874 41.76480146 -10.16033874 41.76480146 -8 45 C-4.31627298 46.20558339 -2.22290835 46.51490878 1.375 45 C3.77538789 42.04567645 3.93510145 39.7641159 4 36 C2.86349056 33.62366207 1.85558971 31.85558971 0 30 C-3.62037896 29.59773567 -5.35949717 29.51529516 -8.3125 31.75 Z M20.625 32.125 C18.70673087 35.51886077 18.36052163 37.16312978 19 41 C20.47616674 43.9703869 20.47616674 43.9703869 23 46 C26 46.75 26 46.75 29 46 C31.62316667 44.08579729 32.74836336 42.63747948 33.9375 39.625 C34.0221688 36.06891031 32.83947665 33.99766565 31 31 C26.99043421 28.9952171 23.96678734 29.13497975 20.625 32.125 Z " fill="#D6EBF6" transform="translate(129,105)"/>
<path d="M0 0 C3.22599699 2.11575127 6.12825563 4.42739567 9 7 C9.639375 7.55816406 10.27875 8.11632812 10.9375 8.69140625 C18.74823067 15.94663237 23.86241387 26.15596027 24.43359375 36.8671875 C24.45661372 38.53630011 24.45747634 40.20584819 24.4375 41.875 C24.43137695 42.74906494 24.42525391 43.62312988 24.41894531 44.52368164 C24.20251912 53.4862234 22.41037997 61.36067789 16 68 C11.92623969 66.38989473 9.23492931 63.46177729 6.25 60.375 C5.74339844 59.859375 5.23679687 59.34375 4.71484375 58.8125 C3.47196098 57.54616661 2.23534724 56.2736856 1 55 C1.22816406 54.32195312 1.45632813 53.64390625 1.69140625 52.9453125 C4.14744076 44.99348777 4.7932732 38.52587997 1.6875 30.6875 C-2.23390117 24.44230554 -6.70211981 19.1082765 -14 17 C-21.12418221 15.54972005 -27.43045756 15.65920943 -34 19 C-37.61228253 21.74217068 -40.81521027 24.77774216 -44 28 C-44.77730469 28.77601563 -45.55460937 29.55203125 -46.35546875 30.3515625 C-47.22816406 31.22554687 -48.10085938 32.09953125 -49 33 C-50.12491556 34.12508444 -51.24992147 35.25007854 -52.375 36.375 C-52.96796875 36.96796875 -53.5609375 37.5609375 -54.171875 38.171875 C-59.625 43.625 -59.625 43.625 -61.36474609 45.36425781 C-62.84068197 46.8406344 -64.31497225 48.31865564 -65.7890625 49.796875 C-70.34867823 54.34037902 -73.31788153 56.88067646 -80 57 C-83.16553069 55.70501017 -84.69376849 54.36747781 -86.875 51.75 C-88.45587112 47.88564836 -88.22201058 46.00547913 -87 42 C-83.40554257 36.82988999 -78.81681743 32.99693361 -74 29 C-72.37761946 27.15691376 -70.822656 25.27910125 -69.296875 23.35546875 C-68.86890625 22.90816406 -68.4409375 22.46085937 -68 22 C-67.34 22 -66.68 22 -66 22 C-65.73445313 21.40832031 -65.46890625 20.81664062 -65.1953125 20.20703125 C-63.1772195 16.48081378 -60.06569161 13.87824301 -57 11 C-56.06607422 10.11054688 -56.06607422 10.11054688 -55.11328125 9.203125 C-40.8509311 -3.87310678 -17.88338533 -10.41155995 0 0 Z " fill="#D8ECF7" transform="translate(328,138)"/>
<path d="M0 0 C2.40001513 2.32001463 3.80263947 4.64487101 4 8 C2.78516616 11.19693117 1.88509857 13.37186553 -0.9375 15.375 C-3 16 -3 16 -7 16 C-6.01 17.98 -6.01 17.98 -5 20 C-6 21 -6 21 -8.28515625 21.09765625 C-9.20167969 21.08605469 -10.11820312 21.07445312 -11.0625 21.0625 C-11.98160156 21.05347656 -12.90070313 21.04445312 -13.84765625 21.03515625 C-14.55792969 21.02355469 -15.26820313 21.01195312 -16 21 C-15.01 21.928125 -15.01 21.928125 -14 22.875 C-12 25 -12 25 -12 27 C-15.19641774 29.39731331 -18.00118212 31.38479725 -22 32 C-22.66 34.31 -23.32 36.62 -24 39 C-24.66 39 -25.32 39 -26 39 C-27.625 37 -27.625 37 -29 35 C-30.19838209 37.32854463 -30.19838209 37.32854463 -31 40 C-30.34 40.99 -29.68 41.98 -29 43 C-29.66 43.99 -30.32 44.98 -31 46 C-31 46.99 -31 47.98 -31 49 C-32.5390625 50.68359375 -32.5390625 50.68359375 -34.625 52.4375 C-35.29789062 53.01371094 -35.97078125 53.58992188 -36.6640625 54.18359375 C-41.83831762 58.207053 -46.40789981 60.76949758 -52.8125 62.25 C-53.52390137 62.41765869 -54.23530273 62.58531738 -54.96826172 62.75805664 C-66.69044591 65.39199956 -78.94258292 64.30339793 -89.5 58.125 C-91.01758185 57.10911873 -92.51966713 56.06943165 -94 55 C-94.928125 54.37931641 -94.928125 54.37931641 -95.875 53.74609375 C-98.75013843 51.65194244 -100.0640049 49.86174941 -101.5625 46.625 C-102.10419652 42.13665743 -101.21621572 39.89748282 -99 36 C-95.5207384 33.68049227 -93.70502927 33.35543409 -89.6171875 33.40234375 C-85.11101908 34.4313643 -81.92326966 37.29274374 -78.3828125 40.15234375 C-72.85841475 44.43601611 -65.66006748 43.53162401 -59 43 C-53.35301556 41.391571 -50.0475031 38.15993374 -46 34 C-44.66923011 33.65657551 -43.33568021 33.32380126 -42 33 C-41.030625 32.13375 -40.06125 31.2675 -39.0625 30.375 C-36 28 -36 28 -33.125 28.1875 C-32.42375 28.455625 -31.7225 28.72375 -31 29 C-31.495 26.03 -31.495 26.03 -32 23 C-26.78832125 21.15069464 -22.95116297 23.15255113 -18 25 C-20.31 23.02 -22.62 21.04 -25 19 C-24.67 17.68 -24.34 16.36 -24 15 C-20.7 15.33 -17.4 15.66 -14 16 C-15.32 14.02 -16.64 12.04 -18 10 C-17.67 9.34 -17.34 8.68 -17 8 C-16.01 8.33 -15.02 8.66 -14 9 C-13.5875 7.906875 -13.175 6.81375 -12.75 5.6875 C-9.95091554 -0.7011511 -6.86229545 -1.87153512 0 0 Z M-6 3 C-6.99 3.66 -7.98 4.32 -9 5 C-8.42655063 7.86724686 -8.1385485 8.8614515 -6 11 C-3.45809998 11.2500773 -3.45809998 11.2500773 -1 11 C0.29633621 9.93354885 0.29633621 9.93354885 0.0625 7.4375 C0.041875 6.633125 0.02125 5.82875 0 5 C-2.8371515 3.80404463 -2.8371515 3.80404463 -6 3 Z M-26 27 C-26 27.66 -26 28.32 -26 29 C-25.34 29 -24.68 29 -24 29 C-24 28.34 -24 27.68 -24 27 C-24.66 27 -25.32 27 -26 27 Z M-30 30 C-29 32 -29 32 -29 32 Z M-36 32 C-36 33.32 -36 34.64 -36 36 C-35.34 36.33 -34.68 36.66 -34 37 C-33.67 35.68 -33.34 34.36 -33 33 C-33.99 32.67 -34.98 32.34 -36 32 Z " fill="#DAEDF8" transform="translate(316,218)"/>
<path d="M0 0 C2.40001513 2.32001463 3.80263947 4.64487101 4 8 C2.78516616 11.19693117 1.88509857 13.37186553 -0.9375 15.375 C-3 16 -3 16 -7 16 C-6.34 17.32 -5.68 18.64 -5 20 C-6 21 -6 21 -8.28515625 21.09765625 C-9.20167969 21.08605469 -10.11820312 21.07445312 -11.0625 21.0625 C-11.98160156 21.05347656 -12.90070313 21.04445312 -13.84765625 21.03515625 C-14.55792969 21.02355469 -15.26820313 21.01195312 -16 21 C-15.34 21.61875 -14.68 22.2375 -14 22.875 C-12 25 -12 25 -12 27 C-15.19641774 29.39731331 -18.00118212 31.38479725 -22 32 C-22.66 34.31 -23.32 36.62 -24 39 C-24.66 39 -25.32 39 -26 39 C-27.625 37 -27.625 37 -29 35 C-30.19838209 37.32854463 -30.19838209 37.32854463 -31 40 C-30.34 40.99 -29.68 41.98 -29 43 C-30.32 43.66 -31.64 44.32 -33 45 C-33.5775 44.54625 -34.155 44.0925 -34.75 43.625 C-36.88838259 41.98867041 -36.88838259 41.98867041 -39 41 C-41.21586515 39.89206743 -43.05563519 38.52771521 -45 37 C-45.7425 37.639375 -46.485 38.27875 -47.25 38.9375 C-49.7111121 40.78333407 -51.03466926 41.56069174 -54 42 C-52.33333333 40.33333333 -50.66666667 38.66666667 -49 37 C-48.484375 36.4225 -47.96875 35.845 -47.4375 35.25 C-46 34 -46 34 -44.1875 33.625 C-41.65141423 33.07227775 -41.65141423 33.07227775 -39.0625 30.375 C-36 28 -36 28 -33.125 28.1875 C-32.42375 28.455625 -31.7225 28.72375 -31 29 C-31.33 27.02 -31.66 25.04 -32 23 C-26.78832125 21.15069464 -22.95116297 23.15255113 -18 25 C-20.31 23.02 -22.62 21.04 -25 19 C-24.67 17.68 -24.34 16.36 -24 15 C-20.7 15.33 -17.4 15.66 -14 16 C-15.32 14.02 -16.64 12.04 -18 10 C-17.67 9.34 -17.34 8.68 -17 8 C-16.01 8.33 -15.02 8.66 -14 9 C-13.38125 7.3603125 -13.38125 7.3603125 -12.75 5.6875 C-9.95091554 -0.7011511 -6.86229545 -1.87153512 0 0 Z M-6 3 C-6.99 3.66 -7.98 4.32 -9 5 C-8.42655063 7.86724686 -8.1385485 8.8614515 -6 11 C-3.45809998 11.2500773 -3.45809998 11.2500773 -1 11 C0.29633621 9.93354885 0.29633621 9.93354885 0.0625 7.4375 C0.041875 6.633125 0.02125 5.82875 0 5 C-2.8371515 3.80404463 -2.8371515 3.80404463 -6 3 Z M-26 27 C-26 27.66 -26 28.32 -26 29 C-25.34 29 -24.68 29 -24 29 C-24 28.34 -24 27.68 -24 27 C-24.66 27 -25.32 27 -26 27 Z M-30 30 C-29 32 -29 32 -29 32 Z M-36 32 C-36 33.32 -36 34.64 -36 36 C-35.34 36.33 -34.68 36.66 -34 37 C-33.67 35.68 -33.34 34.36 -33 33 C-33.99 32.67 -34.98 32.34 -36 32 Z " fill="#D0E4EF" transform="translate(316,218)"/>
<path d="M0 0 C3.57572357 2.27597643 5.96157973 3.9423696 8.3359375 7.50390625 C4.3791647 6.1437656 1.19993929 4.18568141 -2.2109375 1.8203125 C-8.89161933 -1.76470307 -15.44624587 -3.05649115 -22.9765625 -2.99609375 C-23.80325439 -2.99109863 -24.62994629 -2.98610352 -25.48168945 -2.98095703 C-43.03348791 -2.48441801 -53.99694165 9.50383105 -65.703125 21.13671875 C-66.31715557 21.74509457 -66.93118614 22.35347038 -67.5638237 22.98028183 C-70.81162515 26.19825582 -74.05374862 29.42182031 -77.29101562 32.65039062 C-80.61039524 35.95880615 -83.94792585 39.24824799 -87.29014015 42.53357124 C-89.88104108 45.08697911 -92.45819025 47.65394486 -95.03193283 50.22463608 C-96.25559391 51.44229997 -97.48418819 52.65502958 -98.71803665 53.86236954 C-109.65924008 64.58505404 -117.55520103 75.6315649 -117.9140625 91.44140625 C-117.63544604 103.7934025 -113.41098528 114.4197228 -104.90625 123.5859375 C-97.93002292 129.553407 -88.93088922 134.76640793 -79.6640625 135.50390625 C-78.75398438 135.58382812 -77.84390625 135.66375 -76.90625 135.74609375 C-63.80906626 136.32743089 -51.60077821 131.75676798 -41.92431641 122.9140625 C-38.05795165 119.21750082 -34.339377 115.38957262 -30.6640625 111.50390625 C-30.6640625 115.3278527 -32.144369 116.39672824 -34.72753906 119.03564453 C-35.3047168 119.6026709 -35.88189453 120.16969727 -36.4765625 120.75390625 C-37.35973145 121.62571533 -37.35973145 121.62571533 -38.26074219 122.51513672 C-48.73581407 132.60380988 -59.41107277 138.1109713 -74.0390625 137.94140625 C-74.96299805 137.93310791 -75.88693359 137.92480957 -76.83886719 137.91625977 C-88.3769816 137.63055214 -96.09566581 134.17976162 -104.6640625 126.50390625 C-105.623125 125.66666016 -105.623125 125.66666016 -106.6015625 124.8125 C-114.11135367 117.83681035 -119.5699899 107.85452585 -120.09765625 97.515625 C-120.12126892 95.74104203 -120.12193834 93.96602934 -120.1015625 92.19140625 C-120.09326416 91.26223389 -120.08496582 90.33306152 -120.07641602 89.37573242 C-119.76492926 76.72670963 -115.09009779 67.51739626 -106.5703125 58.21875 C-104.6640625 56.50390625 -104.6640625 56.50390625 -102.6640625 56.50390625 C-102.41140625 55.92511719 -102.15875 55.34632813 -101.8984375 54.75 C-99.07850518 49.61879404 -94.08794303 45.6662577 -89.6015625 42.00390625 C-86.47738248 39.34502964 -83.97116916 36.46357548 -81.3203125 33.34765625 C-79.3071955 31.10663921 -77.01929639 29.37601524 -74.6640625 27.50390625 C-73.05802638 25.67014859 -71.5144129 23.80144396 -69.99609375 21.89453125 C-69.55652344 21.435625 -69.11695313 20.97671875 -68.6640625 20.50390625 C-68.0040625 20.50390625 -67.3440625 20.50390625 -66.6640625 20.50390625 C-66.39851563 19.91222656 -66.13296875 19.32054687 -65.859375 18.7109375 C-63.84057679 14.98341792 -60.72771973 12.38592372 -57.6640625 9.50390625 C-57.05304688 8.9109375 -56.44203125 8.31796875 -55.8125 7.70703125 C-40.37708207 -6.64854263 -18.64913147 -10.47304597 0 0 Z " fill="#D0E3EF" transform="translate(253.6640625,214.49609375)"/>
<path d="M0 0 C3.22599699 2.11575127 6.12825563 4.42739567 9 7 C9.639375 7.55816406 10.27875 8.11632812 10.9375 8.69140625 C18.74823067 15.94663237 23.86241387 26.15596027 24.43359375 36.8671875 C24.45661372 38.53630011 24.45747634 40.20584819 24.4375 41.875 C24.43137695 42.74906494 24.42525391 43.62312988 24.41894531 44.52368164 C24.20251912 53.4862234 22.41037997 61.36067789 16 68 C11.92623969 66.38989473 9.23492931 63.46177729 6.25 60.375 C5.74339844 59.859375 5.23679687 59.34375 4.71484375 58.8125 C3.47196098 57.54616661 2.23534724 56.2736856 1 55 C1.22816406 54.32195312 1.45632813 53.64390625 1.69140625 52.9453125 C4.14744076 44.99348777 4.7932732 38.52587997 1.6875 30.6875 C-2.23390117 24.44230554 -6.70211981 19.1082765 -14 17 C-21.10316489 15.55399858 -27.45859506 15.63324908 -34 19 C-36.79387481 21.24543281 -39.34521033 23.59461778 -41.87109375 26.13671875 C-44 28 -44 28 -47 28 C-40.81204141 20.45728125 -35.02764747 14.84724176 -24.921875 13.62890625 C-15.13991299 13.42411148 -8.39869647 15.63894961 -1.125 22.25 C5.14223058 29.15432494 6.55423489 35.74471681 6.2734375 44.95703125 C5.94811046 48.57745643 5.26454454 51.60153655 4 55 C5.62192821 56.64886059 7.24763772 58.2940024 8.875 59.9375 C9.77992188 60.85402344 10.68484375 61.77054687 11.6171875 62.71484375 C13.77682255 65.01187627 13.77682255 65.01187627 16 66 C21.19911621 53.28324278 24.81309834 40.44904034 20 27 C13.77251887 13.15231033 4.71647775 4.45815663 -9.484375 -0.9453125 C-11.68497372 -1.51554063 -13.73432713 -1.81968693 -16 -2 C-16.91007812 -2.07992187 -17.82015625 -2.15984375 -18.7578125 -2.2421875 C-31.63578611 -2.81379468 -42.44578521 1.53497706 -52.14335632 9.83432007 C-54.29912657 11.84194283 -56.4075498 13.88741164 -58.5 15.9609375 C-59.26175537 16.710336 -60.02351074 17.4597345 -60.80834961 18.23184204 C-62.40208663 19.80614674 -63.99180814 21.38452614 -65.57763672 22.96679688 C-68.00426064 25.37923573 -70.45632995 27.76371236 -72.91015625 30.1484375 C-74.46256872 31.68846157 -76.01340674 33.23007472 -77.5625 34.7734375 C-78.2946875 35.47890717 -79.026875 36.18437683 -79.78125 36.91122437 C-84.35314113 41.54543329 -85.93383806 44.43985999 -86 51 C-88 49 -88 49 -88.0625 45.875 C-86.75929498 38.42811418 -79.45488934 33.52639754 -74 29 C-72.37761946 27.15691376 -70.822656 25.27910125 -69.296875 23.35546875 C-68.86890625 22.90816406 -68.4409375 22.46085937 -68 22 C-67.34 22 -66.68 22 -66 22 C-65.73445313 21.40832031 -65.46890625 20.81664062 -65.1953125 20.20703125 C-63.1772195 16.48081378 -60.06569161 13.87824301 -57 11 C-56.06607422 10.11054688 -56.06607422 10.11054688 -55.11328125 9.203125 C-40.8509311 -3.87310678 -17.88338533 -10.41155995 0 0 Z " fill="#D0E3EE" transform="translate(328,138)"/>
<path d="M0 0 C1.75 0.109375 1.75 0.109375 4 1 C5.53938764 3.08057861 6.77051548 4.99688981 8 7.25 C8.52219116 8.18585938 8.52219116 8.18585938 9.05493164 9.140625 C14.81999424 19.85276192 17.16486234 31.05808169 17.3125 43.125 C17.35600586 44.32189453 17.35600586 44.32189453 17.40039062 45.54296875 C17.46276829 51.29131034 17.46276829 51.29131034 15.5078125 54.28515625 C12.0147697 56.6737011 8.39183966 58.52373075 4.5625 60.3125 C3.43618164 60.8703418 3.43618164 60.8703418 2.28710938 61.43945312 C-1.0013942 62.99259861 -3.25002803 64.03104023 -6.92578125 63.87890625 C-9.89574875 62.62044544 -10.63980877 60.85640157 -12 58 C-12.33 57.01 -12.66 56.02 -13 55 C-13.67804688 55.144375 -14.35609375 55.28875 -15.0546875 55.4375 C-25.59346075 57.53941599 -34.50286589 57.23513122 -45 55 C-45.13277344 55.77730469 -45.26554687 56.55460937 -45.40234375 57.35546875 C-46.0571511 60.25288429 -47.09354001 61.76198176 -49 64 C-53.67312888 63.55066068 -56.38775335 62.98090266 -60 60 C-59.31292969 60.11859375 -58.62585938 60.2371875 -57.91796875 60.359375 C-57.01691406 60.48828125 -56.11585937 60.6171875 -55.1875 60.75 C-54.29417969 60.88921875 -53.40085937 61.0284375 -52.48046875 61.171875 C-49.83228781 61.27402528 -49.83228781 61.27402528 -48.17578125 59.015625 C-47.78777344 58.35046875 -47.39976563 57.6853125 -47 57 C-48.98 55.68 -50.96 54.36 -53 53 C-52.67 52.01 -52.34 51.02 -52 50 C-49.88167412 50.5004302 -47.82920084 51.05762979 -45.765625 51.75390625 C-33.41395474 55.72408598 -21.27411715 54.7721411 -9 51 C-7.66879536 50.65826458 -6.33621989 50.32156694 -5 50 C-5 51.32 -5 52.64 -5 54 C-6.32 54.66 -7.64 55.32 -9 56 C-8.34 57.65 -7.68 59.3 -7 61 C-1.89143785 61.6237198 1.45132835 59.48516177 5.75 57.0625 C6.43449219 56.68931641 7.11898437 56.31613281 7.82421875 55.93164062 C11.11349656 54.25071205 11.11349656 54.25071205 14 52 C15.1666033 32.51198756 11.64713635 16.12680418 0 0 Z " fill="#CFE2ED" transform="translate(169,110)"/>
<path d="M0 0 C5.96564796 0.50771472 10.63809899 2.38592128 16 5 C16 5.99 16 6.98 16 8 C13.03 7.505 13.03 7.505 10 7 C9.9175 8.2375 9.835 9.475 9.75 10.75 C9.36714994 13.66793828 9.01775738 14.97268095 7.375 17.5 C4.15823462 19.53164129 1.72696129 19.28668933 -2 19 C-1.01 19.99 -0.02 20.98 1 22 C0.67 22.66 0.34 23.32 0 24 C-3.77235429 23.42946335 -5.62716051 21.83356579 -8.3125 19.1875 C-9.03050781 18.50042969 -9.74851562 17.81335938 -10.48828125 17.10546875 C-12 15 -12 15 -11.83984375 12.84765625 C-10.678944 10.29367679 -9.44354668 9.35752593 -7 8 C-4.375 7.6875 -4.375 7.6875 -2 8 C0 10 0 10 0 14 C1.32 14 2.64 14 4 14 C3.62746094 13.24074219 3.25492187 12.48148438 2.87109375 11.69921875 C2.39800781 10.70535156 1.92492187 9.71148437 1.4375 8.6875 C0.72400391 7.20830078 0.72400391 7.20830078 -0.00390625 5.69921875 C-1 3 -1 3 0 0 Z M5 5 C5 5.66 5 6.32 5 7 C5.99 7 6.98 7 8 7 C8 6.34 8 5.68 8 5 C7.01 5 6.02 5 5 5 Z M-7 12 C-7 12.99 -7 13.98 -7 15 C-6.01 15 -5.02 15 -4 15 C-4 14.01 -4 13.02 -4 12 C-4.99 12 -5.98 12 -7 12 Z " fill="#D0E4EF" transform="translate(325,200)"/>
<path d="M0 0 C0.495 1.98 0.495 1.98 1 4 C7.93 4 14.86 4 22 4 C22 4.66 22 5.32 22 6 C18.541824 6.0868329 15.08392656 6.14033282 11.625 6.1875 C10.14773437 6.22520508 10.14773437 6.22520508 8.640625 6.26367188 C7.22910156 6.27817383 7.22910156 6.27817383 5.7890625 6.29296875 C4.91975098 6.3086792 4.05043945 6.32438965 3.15478516 6.34057617 C2.0881665 6.17199097 2.0881665 6.17199097 1 6 C0.34 5.01 -0.32 4.02 -1 3 C-3.67514538 3.29723838 -6.33413983 3.63258978 -9 4 C-9.886875 4.11085938 -10.77375 4.22171875 -11.6875 4.3359375 C-13.0178125 4.54089844 -13.0178125 4.54089844 -14.375 4.75 C-15.20773438 4.86859375 -16.04046875 4.9871875 -16.8984375 5.109375 C-19.20238886 5.81648212 -19.20238886 5.81648212 -20.07421875 8.16796875 C-20.37972656 9.10253906 -20.68523437 10.03710938 -21 11 C-22.13600238 13.19262146 -23.28276812 15.37968426 -24.4375 17.5625 C-30.25480904 29.09498098 -34.50296305 44.0726844 -31 57 C-27.81962464 60.6700522 -24.5601161 62.43060939 -20 64 C-20.99 64.495 -20.99 64.495 -22 65 C-24.56640625 63.85546875 -24.56640625 63.85546875 -27.5625 62.1875 C-29.04943359 61.37345703 -29.04943359 61.37345703 -30.56640625 60.54296875 C-33 59 -33 59 -34 57 C-34.81188723 41.29310479 -32.84000021 28.31260159 -26 14 C-25.42378906 12.72382812 -25.42378906 12.72382812 -24.8359375 11.421875 C-21.26416003 4.80422594 -16.41414059 3.04934184 -9.4375 0.77734375 C-6.15530688 0.03512053 -3.34961514 -0.15828974 0 0 Z M23 0 C29.30267439 0.36776168 34.33251843 1.16625922 40 4 C35.97706387 5.60917445 33.00635479 4.19487774 29 3 C26.1099983 2.80733322 24.58228559 2.70885721 22 4 C22.33 2.68 22.66 1.36 23 0 Z " fill="#CFE2EE" transform="translate(129,105)"/>
<path d="M0 0 C0 3 0 3 -1.390625 4.54296875 C-2.00421875 5.08566406 -2.6178125 5.62835938 -3.25 6.1875 C-8.76564683 11.51333712 -11.48318594 17.08923446 -12.0390625 24.765625 C-11.91464672 31.88220773 -9.37635336 37.50482897 -4.5 42.625 C-3.675 43.40875 -2.85 44.1925 -2 45 C-1.505 45.556875 -1.01 46.11375 -0.5 46.6875 C3.99345857 50.61927625 10.2569191 51.02515218 16 51 C23.84711236 50.08754507 28.40355986 46.36591969 33.87109375 40.86328125 C36 39 36 39 39 39 C33.71666623 45.84624923 27.75590989 51.34081257 19 53 C9.37495928 53.98790741 2.67170477 52.28915869 -5.03515625 46.4609375 C-11.44051976 40.72194939 -14.12543978 33.61752377 -14.625 25.125 C-14.32086653 17.24794308 -11.22526619 10.41600774 -5.8203125 4.69140625 C-3.93593523 3.02497297 -2.03969922 1.47024004 0 0 Z " fill="#CFE2EE" transform="translate(166,281)"/>
<path d="M0 0 C4.29 0.99 8.58 1.98 13 3 C12.01 6.96 11.02 10.92 10 15 C1.96428571 14.0625 1.96428571 14.0625 -2 13 C-1.85769192 11.58297487 -1.71099254 10.1663904 -1.5625 8.75 C-1.48128906 7.96109375 -1.40007812 7.1721875 -1.31640625 6.359375 C-1 4 -1 4 0 0 Z " fill="#121C27" transform="translate(341,339)"/>
<path d="M0 0 C0.47179687 0.45375 0.94359375 0.9075 1.4296875 1.375 C5.52087043 4.38076705 8.58486711 4.11573204 13.4921875 3.625 C12.2265625 5.12109375 12.2265625 5.12109375 10.4921875 6.625 C4.263473 6.72881191 1.70086494 5.28785994 -2.7421875 1.125 C-7.87742164 -3.23767679 -14.14264499 -3.98912439 -20.69921875 -3.7890625 C-28.60204562 -2.62397259 -34.34841157 1.78673052 -39.5078125 7.625 C-40.1678125 7.295 -40.8278125 6.965 -41.5078125 6.625 C-36.74482737 0.14360455 -31.37503429 -3.89367163 -23.6328125 -6.25 C-15.01967688 -6.59452542 -6.64697081 -6.06148634 0 0 Z " fill="#CFE2EE" transform="translate(248.5078125,233.375)"/>
<path d="M0 0 C4.71621265 1.01114418 8.03509692 4.32780221 11.49609375 7.53515625 C10.50609375 8.03015625 10.50609375 8.03015625 9.49609375 8.53515625 C8.92761719 8.09042969 8.35914063 7.64570313 7.7734375 7.1875 C2.71342874 3.4496309 2.71342874 3.4496309 -3.37890625 2.41015625 C-6.47838603 3.33156496 -6.47838603 3.33156496 -8.50390625 5.16015625 C-10.07955637 8.90232529 -9.79613592 10.65846725 -8.50390625 14.53515625 C-2.93350199 21.4293507 4.30437587 24.6521151 12.49609375 27.53515625 C9.70845235 28.65952713 8.60432649 28.57438871 5.7265625 27.53125 C-8.83041298 20.07523817 -8.83041298 20.07523817 -12.12890625 13.09765625 C-12.59536476 8.66630045 -11.68975803 6.37924041 -9.50390625 2.53515625 C-5.99313184 0.19463998 -4.11864281 -0.04734072 0 0 Z " fill="#CFE2ED" transform="translate(226.50390625,251.46484375)"/>
<path d="M0 0 C3.82068035 0.6702948 5.41402101 1.60391023 7.6796875 4.77734375 C9.36409836 8.30268153 9.11671686 10.745482 8.5625 14.625 C6.61333741 18.14848621 5.43913766 19.32657016 1.625 20.625 C-2.16091484 20.625 -3.57400893 20.10153282 -6.4375 17.625 C-8.63815096 13.86259675 -9.6400847 11.77297998 -8.875 7.4375 C-6.55966534 2.90749741 -5.14073512 0.93467911 0 0 Z M-4.75 4.375 C-6.93278051 7.21527862 -6.93278051 7.21527862 -7.4375 10.625 C-6.59783874 14.38980146 -6.59783874 14.38980146 -4.4375 17.625 C-0.75377298 18.83058339 1.33959165 19.13990878 4.9375 17.625 C7.33788789 14.67067645 7.49760145 12.3891159 7.5625 8.625 C6.42599056 6.24866207 5.41808971 4.48058971 3.5625 2.625 C-0.05787896 2.22273567 -1.79699717 2.14029516 -4.75 4.375 Z " fill="#CFE2ED" transform="translate(125.4375,132.375)"/>
<path d="M0 0 C4.37790353 0.85994534 5.83150399 2.15566705 8.5 5.6875 C10.0198469 9.2971364 9.52404482 10.61994552 8.1875 14.375 C6.5 17.6875 6.5 17.6875 4.5 19.6875 C0.92844907 20.71928138 -0.82635232 20.99370349 -4.25 19.4375 C-6.5 17.6875 -6.5 17.6875 -8.5 14.6875 C-9.02814204 10.08511937 -9.20217809 7.01621538 -6.4375 3.1875 C-3.5 0.6875 -3.5 0.6875 0 0 Z M-5.875 4.8125 C-7.79326913 8.20636077 -8.13947837 9.85062978 -7.5 13.6875 C-6.02383326 16.6578869 -6.02383326 16.6578869 -3.5 18.6875 C-0.5 19.4375 -0.5 19.4375 2.5 18.6875 C5.12316667 16.77329729 6.24836336 15.32497948 7.4375 12.3125 C7.5221688 8.75641031 6.33947665 6.68516565 4.5 3.6875 C0.49043421 1.6827171 -2.53321266 1.82247975 -5.875 4.8125 Z " fill="#CFE2ED" transform="translate(155.5,132.3125)"/>
<path d="M0 0 C0.66 0.33 1.32 0.66 2 1 C-0.57506407 3.63322222 -3.16141918 6.25506959 -5.75 8.875 C-6.84441406 9.99455078 -6.84441406 9.99455078 -7.9609375 11.13671875 C-8.66992188 11.85214844 -9.37890625 12.56757813 -10.109375 13.3046875 C-10.75874023 13.96452637 -11.40810547 14.62436523 -12.07714844 15.30419922 C-13.96893948 16.97260712 -15.69941016 17.99293246 -18 19 C-16.36437924 14.80998385 -13.27696844 12.01766101 -10.125 8.9375 C-9.59519531 8.40833984 -9.06539062 7.87917969 -8.51953125 7.33398438 C-5.8159155 4.66055788 -3.12775517 2.18338465 0 0 Z " fill="#D2E5F0" transform="translate(225,298)"/>
<path d="M0 0 C0 3 0 3 -1.19335938 4.53393555 C-1.73798828 5.062854 -2.28261719 5.59177246 -2.84375 6.13671875 C-3.72353516 7.00200195 -3.72353516 7.00200195 -4.62109375 7.88476562 C-5.24113281 8.47966797 -5.86117187 9.07457031 -6.5 9.6875 C-7.12003906 10.29400391 -7.74007812 10.90050781 -8.37890625 11.52539062 C-9.91264707 13.02373743 -11.45548198 14.51276493 -13 16 C-13.66 15.67 -14.32 15.34 -15 15 C-10.39863498 9.46398272 -5.53601728 4.60136502 0 0 Z " fill="#D1E4EF" transform="translate(184,263)"/>
<path d="M0 0 C0 3 0 3 -1.19335938 4.53393555 C-1.73798828 5.062854 -2.28261719 5.59177246 -2.84375 6.13671875 C-3.72353516 7.00200195 -3.72353516 7.00200195 -4.62109375 7.88476562 C-5.24113281 8.47966797 -5.86117188 9.07457031 -6.5 9.6875 C-7.12003906 10.29400391 -7.74007813 10.90050781 -8.37890625 11.52539062 C-9.91264707 13.02373743 -11.45548198 14.51276493 -13 16 C-13.66 15.67 -14.32 15.34 -15 15 C-10.39863498 9.46398272 -5.53601728 4.60136502 0 0 Z " fill="#D1E4EF" transform="translate(278,169)"/>
<path d="M0 0 C0 3 0 3 -1.19335938 4.53393555 C-1.73798828 5.062854 -2.28261719 5.59177246 -2.84375 6.13671875 C-3.72353516 7.00200195 -3.72353516 7.00200195 -4.62109375 7.88476562 C-5.24113281 8.47966797 -5.86117187 9.07457031 -6.5 9.6875 C-7.12003906 10.29400391 -7.74007812 10.90050781 -8.37890625 11.52539062 C-9.91264707 13.02373743 -11.45548198 14.51276493 -13 16 C-13.66 15.67 -14.32 15.34 -15 15 C-10.28109462 9.59947495 -5.69641143 4.38185495 0 0 Z " fill="#D1E4EF" transform="translate(203,244)"/>
<path d="M0 0 C0 3 0 3 -1.5625 4.625 C-4.79614233 6.44910593 -7.29495122 6.86999829 -11 7 C-13.9375 5.75 -13.9375 5.75 -16 4 C-16 3.01 -16 2.02 -16 1 C-15.46375 1.495 -14.9275 1.99 -14.375 2.5 C-11.26366038 4.4650566 -9.63288013 4.50860322 -6 4 C-2.67191761 2.11586085 -2.67191761 2.11586085 0 0 Z " fill="#D0E3EE" transform="translate(259,188)"/>
<path d="M0 0 C0.66 0.33 1.32 0.66 2 1 C-2.6695469 5.50903122 -6.70785886 8.24645247 -13 10 C-15.23828125 9.56640625 -15.23828125 9.56640625 -17 9 C-16.35933594 8.76925781 -15.71867187 8.53851563 -15.05859375 8.30078125 C-9.35737966 6.15114315 -4.7983036 3.75519412 0 0 Z " fill="#CEE1ED" transform="translate(278,270)"/>
<path d="M0 0 C1.98 0 3.96 0 6 0 C5.01 0.33 4.02 0.66 3 1 C4.98 3.64 6.96 6.28 9 9 C4.2 7.8 4.2 7.8 2 5 C0.8125 2.3125 0.8125 2.3125 0 0 Z " fill="#D6EAF5" transform="translate(293,235)"/>
</svg>
